HIERARCHY
ROOT hip
{
	OFFSET 0.00000 0.00000 0.00000
	CHANNELS 6 Xposition Yposition Zposition Zrotation Yrotation Xrotation 
	JOINT rightuplegdummy
	{
		OFFSET 0 0 0
		CHANNELS 3 Zrotation Yrotation Xrotation
		JOINT rightupleg
		{
			OFFSET -3.52197 -3.41223 0.04002
			CHANNELS 3 Zrotation Yrotation Xrotation
			JOINT rightleg
			{
				OFFSET 0.00006 -17.42390 1.60435
				CHANNELS 3 Zrotation Yrotation Xrotation
				JOINT rightfoot
				{
					OFFSET 0.06153 -16.50078 -1.63901
					CHANNELS 3 Zrotation Yrotation Xrotation
					JOINT righttoes
					{
						OFFSET 0.00298 -1.73825 3.34613
						CHANNELS 3 Zrotation Yrotation Xrotation
						End Site
						{
							OFFSET 0.00480 -0.05416 3.85043
						}
					}
				}
			}
		}
	}
	JOINT spinedummy
	{
		OFFSET 0 0 0
		CHANNELS 3 Zrotation Yrotation Xrotation
		JOINT spine
		{
			OFFSET 0.00000 4.68130 0.00000
			CHANNELS 3 Zrotation Yrotation Xrotation
			JOINT spine1
			{
				OFFSET -0.00000 10.10138 0.05002
				CHANNELS 3 Zrotation Yrotation Xrotation
				JOINT headdummy
				{
					OFFSET 0 0 0
					CHANNELS 3 Zrotation Yrotation Xrotation
					JOINT head
					{
						OFFSET -0.00000 3.43865 0.00438
						CHANNELS 3 Zrotation Yrotation Xrotation
						End Site
						{
							OFFSET -0.11417 5.02924 0.98962
						}
					}
				}
				JOINT leftshoulder1dummy
				{
					OFFSET 0 0 0
					CHANNELS 3 Zrotation Yrotation Xrotation
					JOINT leftshoulder1
					{
						OFFSET 3.53937 -0.14262 -0.08662
						CHANNELS 3 Zrotation Yrotation Xrotation
						JOINT leftarm
						{
							OFFSET 4.04833 -0.00133 0.12681
							CHANNELS 3 Zrotation Yrotation Xrotation
							JOINT leftforearm
							{
								OFFSET 10.33880 -0.01036 -0.55515
								CHANNELS 3 Zrotation Yrotation Xrotation
								JOINT lefthand
								{
									OFFSET 8.69677 0.07543 0.40060
									CHANNELS 3 Zrotation Yrotation Xrotation
									End Site
									{
										OFFSET 5.28377 -0.21905 0.59205
									}
								}
							}
						}
					}
				}
				JOINT rightshoulderdummy
				{
					OFFSET 0 0 0
					CHANNELS 3 Zrotation Yrotation Xrotation
					JOINT rightshoulder
					{
						OFFSET -3.53937 -0.14262 -0.08660
						CHANNELS 3 Zrotation Yrotation Xrotation
						JOINT rightarm
						{
							OFFSET -4.04833 -0.00133 0.12683
							CHANNELS 3 Zrotation Yrotation Xrotation
							JOINT rightforearm
							{
								OFFSET -10.37987 -0.01039 -0.55511
								CHANNELS 3 Zrotation Yrotation Xrotation
								JOINT righthand
								{
									OFFSET -8.67398 0.07538 0.40058
									CHANNELS 3 Zrotation Yrotation Xrotation
									End Site
									{
										OFFSET -5.24810 -0.21916 0.59204
									}
								}
							}
						}
					}
				}
			}
		}
	}
	JOINT leftuplegdummy
	{
		OFFSET 0 0 0
		CHANNELS 3 Zrotation Yrotation Xrotation
		JOINT leftupleg
		{
			OFFSET 3.52197 -3.41223 0.04002
			CHANNELS 3 Zrotation Yrotation Xrotation
			JOINT leftleg
			{
				OFFSET -0.00012 -17.42399 1.60337
				CHANNELS 3 Zrotation Yrotation Xrotation
				JOINT leftfoot
				{
					OFFSET -0.09972 -16.50070 -1.63802
					CHANNELS 3 Zrotation Yrotation Xrotation
					JOINT lefttoes
					{
						OFFSET -0.01575 -1.73823 3.34611
						CHANNELS 3 Zrotation Yrotation Xrotation
						End Site
						{
							OFFSET 0.03150 -0.01868 3.85031
						}
					}
				}
			}
		}
	}
}
MOTION
Frames: 10
Frame Time: 0.033333
2.2524 38.9467 21.5623 -6.9562 56.8165 0.3940 0.0000 -0.0000 0.0000 -7.1209 -2.8323 -13.8769 -2.2299 -3.5993 23.9072 8.7760 -0.1999 -9.2087 0.0000 0.0000 0.0000 0.0000 -0.0000 0.0000 2.1939 -1.2144 2.9009 0.3269 -1.4196 4.4691 -0.0000 -0.0000 -0.0000 10.6696 -27.8932 -32.1884 -0.0000 -0.0000 -0.0000 -37.8176 -13.4352 7.4410 -24.4477 11.3018 13.7698 177.0559 -76.6022 -152.7056 7.7706 -2.4090 -0.5004 -0.0000 -0.0000 -0.0000 30.7448 6.1526 3.5486 31.4722 -6.8094 12.0243 -177.3930 80.3122 -158.0683 -8.5514 8.1881 -0.9336 0.0000 -0.0000 0.0000 8.1279 -2.7076 -12.0423 4.8055 7.3697 25.4889 -10.8625 -0.3215 -15.7661 0.0000 0.0000 0.0000
2.0707 38.3182 21.2410 -5.7731 55.5369 -0.0908 0.0000 -0.0000 0.0000 -8.1190 -0.7577 -16.2471 -3.5293 -4.5101 30.4574 8.7571 0.0034 -11.9340 0.0000 0.0000 0.0000 0.0000 -0.0000 0.0000 0.1253 -0.6378 4.6600 0.9211 -1.0374 6.3864 -0.0000 -0.0000 -0.0000 12.6332 -27.0798 -35.1408 -0.0000 -0.0000 -0.0000 -40.2784 -13.9641 8.1225 -23.8547 5.1898 9.0636 174.4613 -81.4005 -146.8878 8.8380 -2.4014 -0.5717 -0.0000 -0.0000 -0.0000 31.4958 6.3176 3.6825 31.0650 -1.6217 8.9992 -173.9517 84.8960 -152.7599 -9.1071 7.8743 -0.9770 0.0000 -0.0000 0.0000 6.8039 -2.5295 -13.1378 6.8040 8.6587 31.1610 -10.0895 -0.5904 -19.3215 0.0000 0.0000 0.0000
2.0065 38.3430 21.2227 -4.3535 55.4941 0.6504 0.0000 -0.0000 0.0000 -8.9654 1.1592 -18.3160 -5.2492 -5.9130 34.7494 10.2339 -0.1033 -10.6308 0.0000 0.0000 0.0000 0.0000 -0.0000 0.0000 -2.9814 -0.5599 4.9098 2.9023 -1.4741 7.2752 -0.0000 -0.0000 -0.0000 13.7096 -26.6234 -35.5047 -0.0000 -0.0000 -0.0000 -40.8753 -14.1079 8.3007 -26.6921 3.1576 5.6216 173.7108 -82.7448 -147.2882 8.7639 -2.1569 -0.5502 -0.0000 -0.0000 -0.0000 32.2996 6.4658 3.8177 35.3645 -1.6883 7.6574 -172.8628 85.3979 -151.2606 -8.1452 7.6694 -0.8537 0.0000 -0.0000 0.0000 5.9221 -3.0306 -12.5500 6.7416 8.8156 30.4220 -10.2062 -0.5591 -18.8580 0.0000 0.0000 0.0000
2.0820 38.7748 21.3849 -4.5458 55.7948 1.3552 0.0000 -0.0000 0.0000 -8.6174 0.5358 -20.7478 -5.1722 -5.3568 37.0706 9.9690 -0.4527 -6.3772 0.0000 0.0000 0.0000 0.0000 -0.0000 0.0000 -3.7264 -0.9722 4.1974 3.6275 -2.0033 6.2829 -0.0000 -0.0000 -0.0000 12.6264 -26.6871 -33.2916 -0.0000 -0.0000 -0.0000 -40.5913 -13.9846 8.1898 -30.3455 5.1125 5.5227 176.3474 -80.2893 -153.6837 9.5297 -1.3498 -0.5403 -0.0000 -0.0000 -0.0000 33.2142 6.5426 3.9392 40.3725 -5.7651 8.5598 -175.4462 82.2728 -152.9075 -7.8566 8.0600 -0.8436 0.0000 -0.0000 0.0000 6.2799 -2.9060 -11.0847 5.8226 9.0119 25.8536 -10.2683 -0.3831 -16.7113 0.0000 0.0000 0.0000
2.1972 39.2901 21.6934 -4.8810 55.8054 2.3019 0.0000 -0.0000 0.0000 -7.5447 -2.4109 -22.7339 -4.6451 -4.6795 37.6422 8.3925 -0.5499 -4.1000 0.0000 0.0000 0.0000 0.0000 -0.0000 0.0000 -4.0476 -1.4118 2.8456 3.9672 -2.4371 5.2587 -0.0000 -0.0000 -0.0000 11.2417 -26.5837 -30.4481 -0.0000 -0.0000 -0.0000 -39.7386 -13.6919 7.8977 -33.2914 8.7078 6.4955 177.3604 -77.0884 -155.4899 8.9711 -1.3346 -0.5063 -0.0000 -0.0000 -0.0000 34.1243 6.6465 4.0731 42.9625 -10.4158 10.3067 -175.7338 79.3715 -149.6641 -6.0679 9.2461 -0.6876 0.0000 -0.0000 0.0000 6.7994 -1.8600 -8.9411 4.6516 8.7879 19.5257 -10.5009 -0.1749 -14.1739 0.0000 0.0000 0.0000
2.2919 39.6243 22.0794 -4.7471 55.3750 3.2560 0.0000 -0.0000 0.0000 -6.8057 -5.7184 -23.7682 -4.6314 -4.8290 36.6821 8.0197 -0.4060 -5.8567 0.0000 0.0000 0.0000 0.0000 -0.0000 0.0000 -4.5532 -1.7215 1.6529 4.2037 -2.7203 4.7000 -0.0000 -0.0000 -0.0000 10.9435 -26.1496 -28.4191 -0.0000 -0.0000 -0.0000 -38.4785 -13.3557 7.5204 -34.7597 12.5420 7.4375 177.5638 -74.7926 -154.6754 6.6170 -1.7784 -0.3921 -0.0000 -0.0000 -0.0000 34.3997 6.7189 4.1305 43.1139 -13.6025 12.5049 -175.8316 78.3087 -148.4500 -3.4691 9.9496 -0.3742 0.0000 -0.0000 0.0000 6.8829 1.2580 -6.5149 3.3998 5.9100 13.5868 -11.6648 -0.0271 -12.3386 0.0000 0.0000 0.0000
2.3251 39.6794 22.4368 -4.4173 53.9274 3.8590 0.0000 -0.0000 0.0000 -6.9652 -7.7560 -25.0444 -5.5664 -6.1395 35.4326 7.0678 -0.3004 -6.8963 0.0000 0.0000 0.0000 0.0000 -0.0000 0.0000 -4.5899 -1.6698 1.4305 3.9178 -2.5425 4.0521 -0.0000 -0.0000 -0.0000 10.9392 -25.4686 -27.7297 -0.0000 -0.0000 -0.0000 -37.7541 -13.2278 7.3370 -33.8039 15.9508 9.6312 177.8698 -73.3389 -155.6279 6.0324 -1.8410 -0.3587 -0.0000 -0.0000 -0.0000 34.0930 6.6972 4.0901 41.2835 -14.4673 15.2956 -176.2308 78.4312 -150.7717 -2.1835 9.9915 -0.2038 0.0000 -0.0000 0.0000 7.1554 3.8190 -4.5339 2.6525 5.1109 10.4703 -12.6541 -0.0367 -12.3373 0.0000 0.0000 0.0000
2.2639 39.4979 22.8106 -2.5886 51.4240 5.1943 0.0000 -0.0000 0.0000 -8.5397 -8.3870 -26.9746 -7.4277 -8.7830 33.9556 3.9180 -0.2155 -5.6410 0.0000 0.0000 0.0000 0.0000 -0.0000 0.0000 -5.7594 -1.1825 1.8850 3.8183 -1.9785 4.0047 -0.0000 -0.0000 -0.0000 11.2624 -24.6147 -28.7601 -0.0000 -0.0000 -0.0000 -37.9505 -13.3329 7.4175 -30.6996 18.1414 12.1998 178.1187 -73.0096 -157.2165 7.1956 -1.9165 -0.4353 -0.0000 -0.0000 -0.0000 33.9102 6.6544 4.0542 38.7481 -13.1989 16.9189 -175.9991 79.4835 -151.0343 -3.4443 9.7253 -0.3662 0.0000 -0.0000 0.0000 6.5696 4.5027 -3.2574 2.6248 7.2292 10.1987 -12.6444 -0.1316 -13.2451 0.0000 0.0000 0.0000
2.1671 39.1663 23.3192 0.2602 48.3733 6.8898 0.0000 -0.0000 0.0000 -10.9616 -8.3141 -28.2577 -7.7720 -10.7958 29.6287 1.5009 -0.1043 -4.8374 0.0000 0.0000 0.0000 0.0000 -0.0000 0.0000 -7.8147 -0.6040 2.3202 3.6097 -1.3160 5.0305 -0.0000 -0.0000 -0.0000 12.4419 -23.6003 -31.2066 -0.0000 -0.0000 -0.0000 -38.5417 -13.4938 7.5932 -27.1205 19.0123 13.1301 177.9977 -74.5259 -157.2640 7.3003 -2.4246 -0.4692 -0.0000 -0.0000 -0.0000 34.1053 6.6546 4.0743 37.4096 -11.2074 16.3260 -174.6120 81.6568 -148.3658 -4.1895 9.7111 -0.4630 0.0000 -0.0000 0.0000 5.1938 4.4130 -2.4560 3.0706 9.3039 12.0062 -13.0002 -0.2973 -14.7141 0.0000 0.0000 0.0000
2.1502 38.8072 24.0173 1.8531 45.0351 7.5575 0.0000 -0.0000 0.0000 -12.3281 -8.1326 -28.2222 -6.0121 -11.7490 20.9156 1.7570 -0.1269 -4.1799 0.0000 0.0000 0.0000 0.0000 -0.0000 0.0000 -8.5505 -0.3183 2.5263 2.9643 -0.8150 5.9304 -0.0000 -0.0000 -0.0000 13.2385 -22.2220 -33.3684 -0.0000 -0.0000 -0.0000 -39.1242 -13.6306 7.7587 -25.0760 19.6868 12.8514 177.6195 -76.8422 -156.7073 6.5852 -2.7960 -0.4396 -0.0000 -0.0000 -0.0000 34.4565 6.6911 4.1252 37.4445 -10.0348 15.0976 -172.9304 83.6452 -146.7610 -4.2438 9.5860 -0.4669 0.0000 -0.0000 0.0000 4.5999 5.2521 -1.4080 3.8037 11.4371 14.1564 -13.7164 -0.5189 -16.4707 0.0000 0.0000 0.0000
